<svg xmlns="http://www.w3.org/2000/svg" xmlns:xlink="http://www.w3.org/1999/xlink" width="2218" height="1188" contentStyleType="text/css" preserveAspectRatio="none" style="width:2218px;height:1188px;background:#fff" version="1.1" viewBox="0 0 2218 1188" zoomAndPan="magnify"><g><g id="cluster_project_bs::net_models::bill::bill_data_dto"><path fill="none" d="M8.5,261 L335.5,261 A3.75,3.75 0 0 1 338,263.5 L345,283.2969 L391.5,283.2969 A2.5,2.5 0 0 1 394,285.7969 L394,709.5 A2.5,2.5 0 0 1 391.5,712 L8.5,712 A2.5,2.5 0 0 1 6,709.5 L6,263.5 A2.5,2.5 0 0 1 8.5,261" style="stroke:#000;stroke-width:1.5"/><line style="stroke:#000;stroke-width:1.5" x1="6" x2="345" y1="283.297" y2="283.297"/><text x="10" y="275.995" fill="#000" font-family="sans-serif" font-size="14" font-weight="bold" lengthAdjust="spacing" textLength="326">project_bs::net_models::bill::bill_data_dto</text></g><g id="cluster_project_bs::runtime_models::bill::bill_data"><path fill="none" d="M714.5,6 L1043.5,6 A3.75,3.75 0 0 1 1046,8.5 L1053,28.2969 L1139.5,28.2969 A2.5,2.5 0 0 1 1142,30.7969 L1142,471.5 A2.5,2.5 0 0 1 1139.5,474 L714.5,474 A2.5,2.5 0 0 1 712,471.5 L712,8.5 A2.5,2.5 0 0 1 714.5,6" style="stroke:#000;stroke-width:1.5"/><line style="stroke:#000;stroke-width:1.5" x1="712" x2="1053" y1="28.297" y2="28.297"/><text x="716" y="20.995" fill="#000" font-family="sans-serif" font-size="14" font-weight="bold" lengthAdjust="spacing" textLength="328">project_bs::runtime_models::bill::bill_data</text></g><g id="cluster_project_bs::runtime_models::bill::item_group"><path fill="none" d="M420.5,540 L774.5,540 A3.75,3.75 0 0 1 777,542.5 L784,562.2969 L784.5,562.2969 A2.5,2.5 0 0 1 787,564.7969 L787,898.5 A2.5,2.5 0 0 1 784.5,901 L420.5,901 A2.5,2.5 0 0 1 418,898.5 L418,542.5 A2.5,2.5 0 0 1 420.5,540" style="stroke:#000;stroke-width:1.5"/><line style="stroke:#000;stroke-width:1.5" x1="418" x2="784" y1="562.297" y2="562.297"/><text x="422" y="554.995" fill="#000" font-family="sans-serif" font-size="14" font-weight="bold" lengthAdjust="spacing" textLength="353">project_bs::runtime_models::bill::item_group</text></g><g id="cluster_project_bs::runtime_models::user::public_profile"><path fill="none" d="M813.5,548 L1198.5,548 A3.75,3.75 0 0 1 1201,550.5 L1208,570.2969 L1208.5,570.2969 A2.5,2.5 0 0 1 1211,572.7969 L1211,644.5 A2.5,2.5 0 0 1 1208.5,647 L813.5,647 A2.5,2.5 0 0 1 811,644.5 L811,550.5 A2.5,2.5 0 0 1 813.5,548" style="stroke:#000;stroke-width:1.5"/><line style="stroke:#000;stroke-width:1.5" x1="811" x2="1208" y1="570.297" y2="570.297"/><text x="815" y="562.995" fill="#000" font-family="sans-serif" font-size="14" font-weight="bold" lengthAdjust="spacing" textLength="384">project_bs::runtime_models::user::public_profile</text></g><g id="cluster_project_bs::runtime_models::bill::modules::bill_module_tax"><path fill="none" d="M1237.5,548 L1700.5,548 A3.75,3.75 0 0 1 1703,550.5 L1710,570.2969 L1710.5,570.2969 A2.5,2.5 0 0 1 1713,572.7969 L1713,866 A2.5,2.5 0 0 1 1710.5,868.5 L1237.5,868.5 A2.5,2.5 0 0 1 1235,866 L1235,550.5 A2.5,2.5 0 0 1 1237.5,548" style="stroke:#000;stroke-width:1.5"/><line style="stroke:#000;stroke-width:1.5" x1="1235" x2="1710" y1="570.297" y2="570.297"/><text x="1239" y="562.995" fill="#000" font-family="sans-serif" font-size="14" font-weight="bold" lengthAdjust="spacing" textLength="462">project_bs::runtime_models::bill::modules::bill_module_tax</text></g><g id="cluster_project_bs::runtime_models::bill::modules::bill_module_tip"><path fill="none" d="M1739.5,548 L2198.5,548 A3.75,3.75 0 0 1 2201,550.5 L2208,570.2969 L2208.5,570.2969 A2.5,2.5 0 0 1 2211,572.7969 L2211,874.5 A2.5,2.5 0 0 1 2208.5,877 L1739.5,877 A2.5,2.5 0 0 1 1737,874.5 L1737,550.5 A2.5,2.5 0 0 1 1739.5,548" style="stroke:#000;stroke-width:1.5"/><line style="stroke:#000;stroke-width:1.5" x1="1737" x2="2208" y1="570.297" y2="570.297"/><text x="1741" y="562.995" fill="#000" font-family="sans-serif" font-size="14" font-weight="bold" lengthAdjust="spacing" textLength="458">project_bs::runtime_models::bill::modules::bill_module_tip</text></g><g id="cluster_project_bs::runtime_models::bill::item"><path fill="none" d="M296.5,925 L596.5,925 A3.75,3.75 0 0 1 599,927.5 L606,947.2969 L606.5,947.2969 A2.5,2.5 0 0 1 609,949.7969 L609,1178.5 A2.5,2.5 0 0 1 606.5,1181 L296.5,1181 A2.5,2.5 0 0 1 294,1178.5 L294,927.5 A2.5,2.5 0 0 1 296.5,925" style="stroke:#000;stroke-width:1.5"/><line style="stroke:#000;stroke-width:1.5" x1="294" x2="606" y1="947.297" y2="947.297"/><text x="298" y="939.995" fill="#000" font-family="sans-serif" font-size="14" font-weight="bold" lengthAdjust="spacing" textLength="299">project_bs::runtime_models::bill::item</text></g><g id="cluster_project_bs::runtime_models::bill::split_rules::split_rule"><path fill="none" d="M635.5,925 L1064.5,925 A3.75,3.75 0 0 1 1067,927.5 L1074,947.2969 L1074.5,947.2969 A2.5,2.5 0 0 1 1077,949.7969 L1077,1162 A2.5,2.5 0 0 1 1074.5,1164.5 L635.5,1164.5 A2.5,2.5 0 0 1 633,1162 L633,927.5 A2.5,2.5 0 0 1 635.5,925" style="stroke:#000;stroke-width:1.5"/><line style="stroke:#000;stroke-width:1.5" x1="633" x2="1074" y1="947.297" y2="947.297"/><text x="637" y="939.995" fill="#000" font-family="sans-serif" font-size="14" font-weight="bold" lengthAdjust="spacing" textLength="428">project_bs::runtime_models::bill::split_rules::split_rule</text></g><g id="elem_project_bs::net_models::bill::bill_data_dto.dart::BillDataDTO"><rect id="project_bs::net_models::bill::bill_data_dto.dart::BillDataDTO" width="186" height="64.297" x="149" y="296" fill="#F1F1F1" codeLine="1" rx="2.5" ry="2.5" style="stroke:#181818;stroke-width:.5"/><ellipse cx="179.75" cy="312" fill="#ADD1B2" rx="11" ry="11" style="stroke:#181818;stroke-width:1"/><path fill="#000" d="M182.7188,317.6406 Q182.1406,317.9375 181.5,318.0781 Q180.8594,318.2344 180.1563,318.2344 Q177.6563,318.2344 176.3281,316.5938 Q175.0156,314.9375 175.0156,311.8125 Q175.0156,308.6875 176.3281,307.0313 Q177.6563,305.375 180.1563,305.375 Q180.8594,305.375 181.5,305.5313 Q182.1563,305.6875 182.7188,305.9844 L182.7188,308.7031 Q182.0938,308.125 181.5,307.8594 Q180.9063,307.5781 180.2813,307.5781 Q178.9375,307.5781 178.25,308.6563 Q177.5625,309.7188 177.5625,311.8125 Q177.5625,313.9063 178.25,314.9844 Q178.9375,316.0469 180.2813,316.0469 Q180.9063,316.0469 181.5,315.7813 Q182.0938,315.5 182.7188,314.9219 L182.7188,317.6406 Z"/><text x="197.25" y="316.847" fill="#000" font-family="sans-serif" font-size="14" lengthAdjust="spacing" textLength="119">dart::BillDataDTO</text><line style="stroke:#181818;stroke-width:.5" x1="150" x2="334" y1="328" y2="328"/><line style="stroke:#181818;stroke-width:.5" x1="150" x2="334" y1="336" y2="336"/><ellipse cx="160" cy="349.648" fill="#84BE84" rx="3" ry="3" style="stroke:#038048;stroke-width:1"/><text x="169" y="352.995" fill="#000" font-family="sans-serif" font-size="14" lengthAdjust="spacing" textLength="160">BillData toRuntimeObj()</text></g><g id="elem_project_bs::net_models::bill::bill_data_dto.dart::_BillDataDTO"><rect id="project_bs::net_models::bill::bill_data_dto.dart::_BillDataDTO" width="355" height="178.375" x="22.5" y="518" fill="#F1F1F1" codeLine="5" rx="2.5" ry="2.5" style="stroke:#181818;stroke-width:.5"/><ellipse cx="132.75" cy="534" fill="#A9DCDF" rx="11" ry="11" style="stroke:#181818;stroke-width:1"/><path fill="#000" d="M132.8594,529.3438 L131.7031,534.4219 L134.0313,534.4219 L132.8594,529.3438 Z M131.375,527.1094 L134.3594,527.1094 L137.7188,539.5 L135.2656,539.5 L134.5,536.4375 L131.2188,536.4375 L130.4688,539.5 L128.0313,539.5 L131.375,527.1094 Z"/><text x="153.25" y="538.847" fill="#000" font-family="sans-serif" font-size="14" font-style="italic" lengthAdjust="spacing" textLength="126">dart::_BillDataDTO</text><line style="stroke:#181818;stroke-width:.5" x1="23.5" x2="376.5" y1="550" y2="550"/><ellipse cx="33.5" cy="563.648" fill="none" rx="3" ry="3" style="stroke:#038048;stroke-width:1"/><text x="42.5" y="566.995" fill="#000" font-family="sans-serif" font-size="14" lengthAdjust="spacing" textLength="136">DateTime dateTime</text><ellipse cx="33.5" cy="579.945" fill="none" rx="3" ry="3" style="stroke:#038048;stroke-width:1"/><text x="42.5" y="583.292" fill="#000" font-family="sans-serif" font-size="14" lengthAdjust="spacing" textLength="83">String name</text><ellipse cx="33.5" cy="596.242" fill="none" rx="3" ry="3" style="stroke:#038048;stroke-width:1"/><text x="42.5" y="599.589" fill="#000" font-family="sans-serif" font-size="14" lengthAdjust="spacing" textLength="123">double totalSpent</text><ellipse cx="33.5" cy="612.539" fill="none" rx="3" ry="3" style="stroke:#038048;stroke-width:1"/><text x="42.5" y="615.886" fill="#000" font-family="sans-serif" font-size="14" lengthAdjust="spacing" textLength="104">String payerUid</text><ellipse cx="33.5" cy="628.836" fill="none" rx="3" ry="3" style="stroke:#038048;stroke-width:1"/><text x="42.5" y="632.183" fill="#000" font-family="sans-serif" font-size="14" lengthAdjust="spacing" textLength="178">List&lt;String&gt; primarySplits</text><ellipse cx="33.5" cy="645.133" fill="none" rx="3" ry="3" style="stroke:#038048;stroke-width:1"/><text x="42.5" y="648.48" fill="#000" font-family="sans-serif" font-size="14" lengthAdjust="spacing" textLength="244">Map&lt;String, double&gt; splitBalances</text><ellipse cx="33.5" cy="661.43" fill="none" rx="3" ry="3" style="stroke:#038048;stroke-width:1"/><text x="42.5" y="664.776" fill="#000" font-family="sans-serif" font-size="14" lengthAdjust="spacing" textLength="329">Map&lt;String, double&gt; paymentResolveStatuses</text><ellipse cx="33.5" cy="677.727" fill="none" rx="3" ry="3" style="stroke:#038048;stroke-width:1"/><text x="42.5" y="681.073" fill="#000" font-family="sans-serif" font-size="14" lengthAdjust="spacing" textLength="209">DateTime lastUpdatedSession</text><line style="stroke:#181818;stroke-width:.5" x1="23.5" x2="376.5" y1="688.375" y2="688.375"/></g><g id="elem_project_bs::runtime_models::bill::bill_data.dart::BillData"><rect id="project_bs::runtime_models::bill::bill_data.dart::BillData" width="277" height="96.891" x="728.5" y="41" fill="#F1F1F1" codeLine="17" rx="2.5" ry="2.5" style="stroke:#181818;stroke-width:.5"/><ellipse cx="818.75" cy="57" fill="#ADD1B2" rx="11" ry="11" style="stroke:#181818;stroke-width:1"/><path fill="#000" d="M821.7188,62.6406 Q821.1406,62.9375 820.5,63.0781 Q819.8594,63.2344 819.1563,63.2344 Q816.6563,63.2344 815.3281,61.5938 Q814.0156,59.9375 814.0156,56.8125 Q814.0156,53.6875 815.3281,52.0313 Q816.6563,50.375 819.1563,50.375 Q819.8594,50.375 820.5,50.5313 Q821.1563,50.6875 821.7188,50.9844 L821.7188,53.7031 Q821.0938,53.125 820.5,52.8594 Q819.9063,52.5781 819.2813,52.5781 Q817.9375,52.5781 817.25,53.6563 Q816.5625,54.7188 816.5625,56.8125 Q816.5625,58.9063 817.25,59.9844 Q817.9375,61.0469 819.2813,61.0469 Q819.9063,61.0469 820.5,60.7813 Q821.0938,60.5 821.7188,59.9219 L821.7188,62.6406 Z"/><text x="839.25" y="61.847" fill="#000" font-family="sans-serif" font-size="14" lengthAdjust="spacing" textLength="88">dart::BillData</text><line style="stroke:#181818;stroke-width:.5" x1="729.5" x2="1004.5" y1="73" y2="73"/><ellipse cx="739.5" cy="86.648" fill="none" rx="3" ry="3" style="stroke:#038048;stroke-width:1"/><text x="748.5" y="89.995" fill="#000" font-family="sans-serif" font-size="14" lengthAdjust="spacing" textLength="212">BillDataDTO toDataTransferObj</text><ellipse cx="739.5" cy="102.945" fill="none" rx="3" ry="3" style="stroke:#038048;stroke-width:1"/><text x="748.5" y="106.292" fill="#000" font-family="sans-serif" font-size="14" lengthAdjust="spacing" textLength="251">ItemGroup everythingElseItemGroup</text><ellipse cx="739.5" cy="119.242" fill="none" rx="3" ry="3" style="stroke:#038048;stroke-width:1"/><text x="748.5" y="122.589" fill="#000" font-family="sans-serif" font-size="14" lengthAdjust="spacing" textLength="153">double everythingElse</text><line style="stroke:#181818;stroke-width:.5" x1="729.5" x2="1004.5" y1="129.891" y2="129.891"/></g><g id="elem_project_bs::runtime_models::bill::bill_data.dart::_BillData"><rect id="project_bs::runtime_models::bill::bill_data.dart::_BillData" width="398" height="259.859" x="728" y="198" fill="#F1F1F1" codeLine="26" rx="2.5" ry="2.5" style="stroke:#181818;stroke-width:.5"/><ellipse cx="875.25" cy="214" fill="#A9DCDF" rx="11" ry="11" style="stroke:#181818;stroke-width:1"/><path fill="#000" d="M875.3594,209.3438 L874.2031,214.4219 L876.5313,214.4219 L875.3594,209.3438 Z M873.875,207.1094 L876.8594,207.1094 L880.2188,219.5 L877.7656,219.5 L877,216.4375 L873.7188,216.4375 L872.9688,219.5 L870.5313,219.5 L873.875,207.1094 Z"/><text x="895.75" y="218.847" fill="#000" font-family="sans-serif" font-size="14" font-style="italic" lengthAdjust="spacing" textLength="95">dart::_BillData</text><line style="stroke:#181818;stroke-width:.5" x1="729" x2="1125" y1="230" y2="230"/><ellipse cx="739" cy="243.648" fill="none" rx="3" ry="3" style="stroke:#038048;stroke-width:1"/><text x="748" y="246.995" fill="#000" font-family="sans-serif" font-size="14" lengthAdjust="spacing" textLength="65">String uid</text><ellipse cx="739" cy="259.945" fill="none" rx="3" ry="3" style="stroke:#038048;stroke-width:1"/><text x="748" y="263.292" fill="#000" font-family="sans-serif" font-size="14" lengthAdjust="spacing" textLength="136">DateTime dateTime</text><ellipse cx="739" cy="276.242" fill="none" rx="3" ry="3" style="stroke:#038048;stroke-width:1"/><text x="748" y="279.589" fill="#000" font-family="sans-serif" font-size="14" lengthAdjust="spacing" textLength="83">String name</text><ellipse cx="739" cy="292.539" fill="none" rx="3" ry="3" style="stroke:#038048;stroke-width:1"/><text x="748" y="295.886" fill="#000" font-family="sans-serif" font-size="14" lengthAdjust="spacing" textLength="123">double totalSpent</text><ellipse cx="739" cy="308.836" fill="none" rx="3" ry="3" style="stroke:#038048;stroke-width:1"/><text x="748" y="312.183" fill="#000" font-family="sans-serif" font-size="14" lengthAdjust="spacing" textLength="132">PublicProfile? payer</text><ellipse cx="739" cy="325.133" fill="none" rx="3" ry="3" style="stroke:#038048;stroke-width:1"/><text x="748" y="328.479" fill="#000" font-family="sans-serif" font-size="14" lengthAdjust="spacing" textLength="221">List&lt;PublicProfile&gt; primarySplits</text><ellipse cx="739" cy="341.43" fill="none" rx="3" ry="3" style="stroke:#038048;stroke-width:1"/><text x="748" y="344.776" fill="#000" font-family="sans-serif" font-size="14" lengthAdjust="spacing" textLength="250">List&lt;PublicProfile&gt;? secondarySplits</text><ellipse cx="739" cy="357.727" fill="none" rx="3" ry="3" style="stroke:#038048;stroke-width:1"/><text x="748" y="361.073" fill="#000" font-family="sans-serif" font-size="14" lengthAdjust="spacing" textLength="287">Map&lt;PublicProfile, double&gt; splitBalances</text><ellipse cx="739" cy="374.023" fill="none" rx="3" ry="3" style="stroke:#038048;stroke-width:1"/><text x="748" y="377.37" fill="#000" font-family="sans-serif" font-size="14" lengthAdjust="spacing" textLength="372">Map&lt;PublicProfile, double&gt; paymentResolveStatuses</text><ellipse cx="739" cy="390.32" fill="none" rx="3" ry="3" style="stroke:#038048;stroke-width:1"/><text x="748" y="393.667" fill="#000" font-family="sans-serif" font-size="14" lengthAdjust="spacing" textLength="205">List&lt;ItemGroup&gt; itemGroups</text><ellipse cx="739" cy="406.617" fill="none" rx="3" ry="3" style="stroke:#038048;stroke-width:1"/><text x="748" y="409.964" fill="#000" font-family="sans-serif" font-size="14" lengthAdjust="spacing" textLength="176">BillModule_Tax taxModule</text><ellipse cx="739" cy="422.914" fill="none" rx="3" ry="3" style="stroke:#038048;stroke-width:1"/><text x="748" y="426.261" fill="#000" font-family="sans-serif" font-size="14" lengthAdjust="spacing" textLength="170">BillModule_Tip tipModule</text><ellipse cx="739" cy="439.211" fill="none" rx="3" ry="3" style="stroke:#038048;stroke-width:1"/><text x="748" y="442.558" fill="#000" font-family="sans-serif" font-size="14" lengthAdjust="spacing" textLength="209">DateTime lastUpdatedSession</text><line style="stroke:#181818;stroke-width:.5" x1="729" x2="1125" y1="449.859" y2="449.859"/></g><g id="elem_project_bs::runtime_models::bill::item_group.dart::ItemGroup"><rect id="project_bs::runtime_models::bill::item_group.dart::ItemGroup" width="142" height="64.297" x="604" y="575" fill="#F1F1F1" codeLine="57" rx="2.5" ry="2.5" style="stroke:#181818;stroke-width:.5"/><ellipse cx="619" cy="591" fill="#ADD1B2" rx="11" ry="11" style="stroke:#181818;stroke-width:1"/><path fill="#000" d="M621.9688,596.6406 Q621.3906,596.9375 620.75,597.0781 Q620.1094,597.2344 619.4063,597.2344 Q616.9063,597.2344 615.5781,595.5938 Q614.2656,593.9375 614.2656,590.8125 Q614.2656,587.6875 615.5781,586.0313 Q616.9063,584.375 619.4063,584.375 Q620.1094,584.375 620.75,584.5313 Q621.4063,584.6875 621.9688,584.9844 L621.9688,587.7031 Q621.3438,587.125 620.75,586.8594 Q620.1563,586.5781 619.5313,586.5781 Q618.1875,586.5781 617.5,587.6563 Q616.8125,588.7188 616.8125,590.8125 Q616.8125,592.9063 617.5,593.9844 Q618.1875,595.0469 619.5313,595.0469 Q620.1563,595.0469 620.75,594.7813 Q621.3438,594.5 621.9688,593.9219 L621.9688,596.6406 Z"/><text x="633" y="595.847" fill="#000" font-family="sans-serif" font-size="14" lengthAdjust="spacing" textLength="110">dart::ItemGroup</text><line style="stroke:#181818;stroke-width:.5" x1="605" x2="745" y1="607" y2="607"/><ellipse cx="615" cy="620.648" fill="none" rx="3" ry="3" style="stroke:#038048;stroke-width:1"/><text x="624" y="623.995" fill="#000" font-family="sans-serif" font-size="14" lengthAdjust="spacing" textLength="88">double value</text><line style="stroke:#181818;stroke-width:.5" x1="605" x2="745" y1="631.297" y2="631.297"/></g><g id="elem_project_bs::runtime_models::bill::item_group.dart::_ItemGroup"><rect id="project_bs::runtime_models::bill::item_group.dart::_ItemGroup" width="313" height="129.484" x="457.5" y="756" fill="#F1F1F1" codeLine="61" rx="2.5" ry="2.5" style="stroke:#181818;stroke-width:.5"/><ellipse cx="551.25" cy="772" fill="#A9DCDF" rx="11" ry="11" style="stroke:#181818;stroke-width:1"/><path fill="#000" d="M551.3594,767.3438 L550.2031,772.4219 L552.5313,772.4219 L551.3594,767.3438 Z M549.875,765.1094 L552.8594,765.1094 L556.2188,777.5 L553.7656,777.5 L553,774.4375 L549.7188,774.4375 L548.9688,777.5 L546.5313,777.5 L549.875,765.1094 Z"/><text x="571.75" y="776.847" fill="#000" font-family="sans-serif" font-size="14" font-style="italic" lengthAdjust="spacing" textLength="117">dart::_ItemGroup</text><line style="stroke:#181818;stroke-width:.5" x1="458.5" x2="769.5" y1="788" y2="788"/><ellipse cx="468.5" cy="801.648" fill="none" rx="3" ry="3" style="stroke:#038048;stroke-width:1"/><text x="477.5" y="804.995" fill="#000" font-family="sans-serif" font-size="14" lengthAdjust="spacing" textLength="83">String name</text><ellipse cx="468.5" cy="817.945" fill="none" rx="3" ry="3" style="stroke:#038048;stroke-width:1"/><text x="477.5" y="821.292" fill="#000" font-family="sans-serif" font-size="14" lengthAdjust="spacing" textLength="221">List&lt;PublicProfile&gt; primarySplits</text><ellipse cx="468.5" cy="834.242" fill="none" rx="3" ry="3" style="stroke:#038048;stroke-width:1"/><text x="477.5" y="837.589" fill="#000" font-family="sans-serif" font-size="14" lengthAdjust="spacing" textLength="119">List&lt;Item&gt; items</text><ellipse cx="468.5" cy="850.539" fill="none" rx="3" ry="3" style="stroke:#038048;stroke-width:1"/><text x="477.5" y="853.886" fill="#000" font-family="sans-serif" font-size="14" lengthAdjust="spacing" textLength="178">List&lt;SplitRule&gt; splitRules</text><ellipse cx="468.5" cy="866.836" fill="none" rx="3" ry="3" style="stroke:#038048;stroke-width:1"/><text x="477.5" y="870.183" fill="#000" font-family="sans-serif" font-size="14" lengthAdjust="spacing" textLength="287">Map&lt;PublicProfile, double&gt; splitBalances</text><line style="stroke:#181818;stroke-width:.5" x1="458.5" x2="769.5" y1="877.484" y2="877.484"/></g><g id="elem_project_bs::runtime_models::user::public_profile.dart::PublicProfile"><rect id="project_bs::runtime_models::user::public_profile.dart::PublicProfile" width="152" height="48" x="851" y="583" fill="#F1F1F1" rx="2.5" ry="2.5" style="stroke:#181818;stroke-width:.5"/><ellipse cx="866" cy="599" fill="#ADD1B2" rx="11" ry="11" style="stroke:#181818;stroke-width:1"/><path fill="#000" d="M868.9688,604.6406 Q868.3906,604.9375 867.75,605.0781 Q867.1094,605.2344 866.4063,605.2344 Q863.9063,605.2344 862.5781,603.5938 Q861.2656,601.9375 861.2656,598.8125 Q861.2656,595.6875 862.5781,594.0313 Q863.9063,592.375 866.4063,592.375 Q867.1094,592.375 867.75,592.5313 Q868.4063,592.6875 868.9688,592.9844 L868.9688,595.7031 Q868.3438,595.125 867.75,594.8594 Q867.1563,594.5781 866.5313,594.5781 Q865.1875,594.5781 864.5,595.6563 Q863.8125,596.7188 863.8125,598.8125 Q863.8125,600.9063 864.5,601.9844 Q865.1875,603.0469 866.5313,603.0469 Q867.1563,603.0469 867.75,602.7813 Q868.3438,602.5 868.9688,601.9219 L868.9688,604.6406 Z"/><text x="880" y="603.847" fill="#000" font-family="sans-serif" font-size="14" lengthAdjust="spacing" textLength="120">dart::PublicProfile</text><line style="stroke:#181818;stroke-width:.5" x1="852" x2="1002" y1="615" y2="615"/><line style="stroke:#181818;stroke-width:.5" x1="852" x2="1002" y1="623" y2="623"/></g><g id="elem_project_bs::runtime_models::bill::modules::bill_module_tax.dart::BillModule_Tax"><rect id="project_bs::runtime_models::bill::modules::bill_module_tax.dart::BillModule_Tax" width="170" height="48" x="1252" y="583" fill="#F1F1F1" codeLine="72" rx="2.5" ry="2.5" style="stroke:#181818;stroke-width:.5"/><ellipse cx="1267" cy="599" fill="#ADD1B2" rx="11" ry="11" style="stroke:#181818;stroke-width:1"/><path fill="#000" d="M1269.9688,604.6406 Q1269.3906,604.9375 1268.75,605.0781 Q1268.1094,605.2344 1267.4063,605.2344 Q1264.9063,605.2344 1263.5781,603.5938 Q1262.2656,601.9375 1262.2656,598.8125 Q1262.2656,595.6875 1263.5781,594.0313 Q1264.9063,592.375 1267.4063,592.375 Q1268.1094,592.375 1268.75,592.5313 Q1269.4063,592.6875 1269.9688,592.9844 L1269.9688,595.7031 Q1269.3438,595.125 1268.75,594.8594 Q1268.1563,594.5781 1267.5313,594.5781 Q1266.1875,594.5781 1265.5,595.6563 Q1264.8125,596.7188 1264.8125,598.8125 Q1264.8125,600.9063 1265.5,601.9844 Q1266.1875,603.0469 1267.5313,603.0469 Q1268.1563,603.0469 1268.75,602.7813 Q1269.3438,602.5 1269.9688,601.9219 L1269.9688,604.6406 Z"/><text x="1281" y="603.847" fill="#000" font-family="sans-serif" font-size="14" lengthAdjust="spacing" textLength="138">dart::BillModule_Tax</text><line style="stroke:#181818;stroke-width:.5" x1="1253" x2="1421" y1="615" y2="615"/><line style="stroke:#181818;stroke-width:.5" x1="1253" x2="1421" y1="623" y2="623"/></g><g id="elem_project_bs::runtime_models::bill::modules::bill_module_tax.dart::_BillModule_Tax"><rect id="project_bs::runtime_models::bill::modules::bill_module_tax.dart::_BillModule_Tax" width="177" height="64.297" x="1250.5" y="788.5" fill="#F1F1F1" codeLine="75" rx="2.5" ry="2.5" style="stroke:#181818;stroke-width:.5"/><ellipse cx="1265.5" cy="804.5" fill="#A9DCDF" rx="11" ry="11" style="stroke:#181818;stroke-width:1"/><path fill="#000" d="M1265.6094,799.8438 L1264.4531,804.9219 L1266.7813,804.9219 L1265.6094,799.8438 Z M1264.125,797.6094 L1267.1094,797.6094 L1270.4688,810 L1268.0156,810 L1267.25,806.9375 L1263.9688,806.9375 L1263.2188,810 L1260.7813,810 L1264.125,797.6094 Z"/><text x="1279.5" y="809.347" fill="#000" font-family="sans-serif" font-size="14" font-style="italic" lengthAdjust="spacing" textLength="145">dart::_BillModule_Tax</text><line style="stroke:#181818;stroke-width:.5" x1="1251.5" x2="1426.5" y1="820.5" y2="820.5"/><ellipse cx="1261.5" cy="834.148" fill="none" rx="3" ry="3" style="stroke:#038048;stroke-width:1"/><text x="1270.5" y="837.495" fill="#000" font-family="sans-serif" font-size="14" lengthAdjust="spacing" textLength="106">double totalTax</text><line style="stroke:#181818;stroke-width:.5" x1="1251.5" x2="1426.5" y1="844.797" y2="844.797"/></g><g id="elem_project_bs::runtime_models::bill::modules::bill_module_tip.dart::BillModule_Tip"><rect id="project_bs::runtime_models::bill::modules::bill_module_tip.dart::BillModule_Tip" width="167" height="48" x="1762.5" y="583" fill="#F1F1F1" codeLine="80" rx="2.5" ry="2.5" style="stroke:#181818;stroke-width:.5"/><ellipse cx="1777.5" cy="599" fill="#ADD1B2" rx="11" ry="11" style="stroke:#181818;stroke-width:1"/><path fill="#000" d="M1780.4688,604.6406 Q1779.8906,604.9375 1779.25,605.0781 Q1778.6094,605.2344 1777.9063,605.2344 Q1775.4063,605.2344 1774.0781,603.5938 Q1772.7656,601.9375 1772.7656,598.8125 Q1772.7656,595.6875 1774.0781,594.0313 Q1775.4063,592.375 1777.9063,592.375 Q1778.6094,592.375 1779.25,592.5313 Q1779.9063,592.6875 1780.4688,592.9844 L1780.4688,595.7031 Q1779.8438,595.125 1779.25,594.8594 Q1778.6563,594.5781 1778.0313,594.5781 Q1776.6875,594.5781 1776,595.6563 Q1775.3125,596.7188 1775.3125,598.8125 Q1775.3125,600.9063 1776,601.9844 Q1776.6875,603.0469 1778.0313,603.0469 Q1778.6563,603.0469 1779.25,602.7813 Q1779.8438,602.5 1780.4688,601.9219 L1780.4688,604.6406 Z"/><text x="1791.5" y="603.847" fill="#000" font-family="sans-serif" font-size="14" lengthAdjust="spacing" textLength="135">dart::BillModule_Tip</text><line style="stroke:#181818;stroke-width:.5" x1="1763.5" x2="1928.5" y1="615" y2="615"/><line style="stroke:#181818;stroke-width:.5" x1="1763.5" x2="1928.5" y1="623" y2="623"/></g><g id="elem_project_bs::runtime_models::bill::modules::bill_module_tip.dart::_BillModule_Tip"><rect id="project_bs::runtime_models::bill::modules::bill_module_tip.dart::_BillModule_Tip" width="206" height="80.594" x="1753" y="780" fill="#F1F1F1" codeLine="83" rx="2.5" ry="2.5" style="stroke:#181818;stroke-width:.5"/><ellipse cx="1782.4" cy="796" fill="#A9DCDF" rx="11" ry="11" style="stroke:#181818;stroke-width:1"/><path fill="#000" d="M1782.5094,791.3438 L1781.3531,796.4219 L1783.6813,796.4219 L1782.5094,791.3438 Z M1781.025,789.1094 L1784.0094,789.1094 L1787.3688,801.5 L1784.9156,801.5 L1784.15,798.4375 L1780.8688,798.4375 L1780.1188,801.5 L1777.6813,801.5 L1781.025,789.1094 Z"/><text x="1799.6" y="800.847" fill="#000" font-family="sans-serif" font-size="14" font-style="italic" lengthAdjust="spacing" textLength="142">dart::_BillModule_Tip</text><line style="stroke:#181818;stroke-width:.5" x1="1754" x2="1958" y1="812" y2="812"/><ellipse cx="1764" cy="825.648" fill="none" rx="3" ry="3" style="stroke:#038048;stroke-width:1"/><text x="1773" y="828.995" fill="#000" font-family="sans-serif" font-size="14" lengthAdjust="spacing" textLength="103">double totalTip</text><ellipse cx="1764" cy="841.945" fill="none" rx="3" ry="3" style="stroke:#038048;stroke-width:1"/><text x="1773" y="845.292" fill="#000" font-family="sans-serif" font-size="14" lengthAdjust="spacing" textLength="180">bool includedInTotalSpent</text><line style="stroke:#181818;stroke-width:.5" x1="1754" x2="1958" y1="852.594" y2="852.594"/></g><g id="elem_project_bs::runtime_models::bill::item.dart::Item"><rect id="project_bs::runtime_models::bill::item.dart::Item" width="99" height="48" x="462.5" y="960" fill="#F1F1F1" codeLine="47" rx="2.5" ry="2.5" style="stroke:#181818;stroke-width:.5"/><ellipse cx="477.5" cy="976" fill="#ADD1B2" rx="11" ry="11" style="stroke:#181818;stroke-width:1"/><path fill="#000" d="M480.4688,981.6406 Q479.8906,981.9375 479.25,982.0781 Q478.6094,982.2344 477.9063,982.2344 Q475.4063,982.2344 474.0781,980.5938 Q472.7656,978.9375 472.7656,975.8125 Q472.7656,972.6875 474.0781,971.0313 Q475.4063,969.375 477.9063,969.375 Q478.6094,969.375 479.25,969.5313 Q479.9063,969.6875 480.4688,969.9844 L480.4688,972.7031 Q479.8438,972.125 479.25,971.8594 Q478.6563,971.5781 478.0313,971.5781 Q476.6875,971.5781 476,972.6563 Q475.3125,973.7188 475.3125,975.8125 Q475.3125,977.9063 476,978.9844 Q476.6875,980.0469 478.0313,980.0469 Q478.6563,980.0469 479.25,979.7813 Q479.8438,979.5 480.4688,978.9219 L480.4688,981.6406 Z"/><text x="491.5" y="980.847" fill="#000" font-family="sans-serif" font-size="14" lengthAdjust="spacing" textLength="67">dart::Item</text><line style="stroke:#181818;stroke-width:.5" x1="463.5" x2="560.5" y1="992" y2="992"/><line style="stroke:#181818;stroke-width:.5" x1="463.5" x2="560.5" y1="1000" y2="1000"/></g><g id="elem_project_bs::runtime_models::bill::item.dart::_Item"><rect id="project_bs::runtime_models::bill::item.dart::_Item" width="223" height="96.891" x="370.5" y="1068" fill="#F1F1F1" codeLine="50" rx="2.5" ry="2.5" style="stroke:#181818;stroke-width:.5"/><ellipse cx="440.75" cy="1084" fill="#A9DCDF" rx="11" ry="11" style="stroke:#181818;stroke-width:1"/><path fill="#000" d="M440.8594,1079.3438 L439.7031,1084.4219 L442.0313,1084.4219 L440.8594,1079.3438 Z M439.375,1077.1094 L442.3594,1077.1094 L445.7188,1089.5 L443.2656,1089.5 L442.5,1086.4375 L439.2188,1086.4375 L438.4688,1089.5 L436.0313,1089.5 L439.375,1077.1094 Z"/><text x="461.25" y="1088.847" fill="#000" font-family="sans-serif" font-size="14" font-style="italic" lengthAdjust="spacing" textLength="74">dart::_Item</text><line style="stroke:#181818;stroke-width:.5" x1="371.5" x2="592.5" y1="1100" y2="1100"/><ellipse cx="381.5" cy="1113.648" fill="none" rx="3" ry="3" style="stroke:#038048;stroke-width:1"/><text x="390.5" y="1116.995" fill="#000" font-family="sans-serif" font-size="14" lengthAdjust="spacing" textLength="83">String name</text><ellipse cx="381.5" cy="1129.945" fill="none" rx="3" ry="3" style="stroke:#038048;stroke-width:1"/><text x="390.5" y="1133.292" fill="#000" font-family="sans-serif" font-size="14" lengthAdjust="spacing" textLength="88">double value</text><ellipse cx="381.5" cy="1146.242" fill="none" rx="3" ry="3" style="stroke:#038048;stroke-width:1"/><text x="390.5" y="1149.589" fill="#000" font-family="sans-serif" font-size="14" lengthAdjust="spacing" textLength="197">List&lt;bool&gt; taxableStatusList</text><line style="stroke:#181818;stroke-width:.5" x1="371.5" x2="592.5" y1="1156.891" y2="1156.891"/></g><g id="elem_project_bs::runtime_models::bill::split_rules::split_rule.dart::SplitRule"><rect id="project_bs::runtime_models::bill::split_rules::split_rule.dart::SplitRule" width="129" height="48" x="650.5" y="960" fill="#F1F1F1" codeLine="89" rx="2.5" ry="2.5" style="stroke:#181818;stroke-width:.5"/><ellipse cx="665.5" cy="976" fill="#ADD1B2" rx="11" ry="11" style="stroke:#181818;stroke-width:1"/><path fill="#000" d="M668.4688,981.6406 Q667.8906,981.9375 667.25,982.0781 Q666.6094,982.2344 665.9063,982.2344 Q663.4063,982.2344 662.0781,980.5938 Q660.7656,978.9375 660.7656,975.8125 Q660.7656,972.6875 662.0781,971.0313 Q663.4063,969.375 665.9063,969.375 Q666.6094,969.375 667.25,969.5313 Q667.9063,969.6875 668.4688,969.9844 L668.4688,972.7031 Q667.8438,972.125 667.25,971.8594 Q666.6563,971.5781 666.0313,971.5781 Q664.6875,971.5781 664,972.6563 Q663.3125,973.7188 663.3125,975.8125 Q663.3125,977.9063 664,978.9844 Q664.6875,980.0469 666.0313,980.0469 Q666.6563,980.0469 667.25,979.7813 Q667.8438,979.5 668.4688,978.9219 L668.4688,981.6406 Z"/><text x="679.5" y="980.847" fill="#000" font-family="sans-serif" font-size="14" lengthAdjust="spacing" textLength="97">dart::SplitRule</text><line style="stroke:#181818;stroke-width:.5" x1="651.5" x2="778.5" y1="992" y2="992"/><line style="stroke:#181818;stroke-width:.5" x1="651.5" x2="778.5" y1="1000" y2="1000"/></g><g id="elem_project_bs::runtime_models::bill::split_rules::split_rule.dart::_SplitRule"><rect id="project_bs::runtime_models::bill::split_rules::split_rule.dart::_SplitRule" width="136" height="64.297" x="649" y="1084.5" fill="#F1F1F1" codeLine="92" rx="2.5" ry="2.5" style="stroke:#181818;stroke-width:.5"/><ellipse cx="664" cy="1100.5" fill="#A9DCDF" rx="11" ry="11" style="stroke:#181818;stroke-width:1"/><path fill="#000" d="M664.1094,1095.8438 L662.9531,1100.9219 L665.2813,1100.9219 L664.1094,1095.8438 Z M662.625,1093.6094 L665.6094,1093.6094 L668.9688,1106 L666.5156,1106 L665.75,1102.9375 L662.4688,1102.9375 L661.7188,1106 L659.2813,1106 L662.625,1093.6094 Z"/><text x="678" y="1105.347" fill="#000" font-family="sans-serif" font-size="14" font-style="italic" lengthAdjust="spacing" textLength="104">dart::_SplitRule</text><line style="stroke:#181818;stroke-width:.5" x1="650" x2="784" y1="1116.5" y2="1116.5"/><ellipse cx="660" cy="1130.148" fill="none" rx="3" ry="3" style="stroke:#038048;stroke-width:1"/><text x="669" y="1133.495" fill="#000" font-family="sans-serif" font-size="14" lengthAdjust="spacing" textLength="51">int type</text><line style="stroke:#181818;stroke-width:.5" x1="650" x2="784" y1="1140.797" y2="1140.797"/></g><g id="link_project_bs::net_models::bill::bill_data_dto.dart::BillDataDTO_project_bs::net_models::bill::bill_data_dto.dart::_BillDataDTO"><path id="project_bs::net_models::bill::bill_data_dto.dart::BillDataDTO-backto-project_bs::net_models::bill::bill_data_dto.dart::_BillDataDTO" fill="none" d="M236.5,365.28 C230.65,403.85 221.19,466.28 213.36,517.89" codeLine="15" style="stroke:#181818;stroke-width:1"/><polygon fill="#181818" points="237.26 360.24 231.967 368.546 236.517 365.185 239.878 369.735 237.26 360.24" style="stroke:#181818;stroke-width:1"/></g><g id="link_project_bs::runtime_models::bill::bill_data.dart::BillData_project_bs::net_models::bill::bill_data_dto.dart::BillDataDTO"><path id="project_bs::runtime_models::bill::bill_data.dart::BillData-backto-project_bs::net_models::bill::bill_data_dto.dart::BillDataDTO" fill="none" d="M729.07,142.69 C605.11,189.6 427.19,256.92 324.22,295.89" codeLine="23" style="stroke:#181818;stroke-width:1"/><polygon fill="none" points="741.27 138.07 734.241 136.459 730.051 142.328 737.08 143.939 741.27 138.07" style="stroke:#181818;stroke-width:1"/></g><g id="link_project_bs::runtime_models::bill::bill_data.dart::BillData_project_bs::runtime_models::bill::item_group.dart::ItemGroup"><path id="project_bs::runtime_models::bill::bill_data.dart::BillData-backto-project_bs::runtime_models::bill::item_group.dart::ItemGroup" fill="none" d="M759,145.99 C740.14,160.43 722.81,177.74 711,198 C638.94,321.64 657.93,503.03 669.35,574.96" codeLine="24" style="stroke:#181818;stroke-width:1"/><polygon fill="none" points="769.61 138.27 762.405 138.569 759.91 145.334 767.115 145.036 769.61 138.27" style="stroke:#181818;stroke-width:1"/></g><g id="link_project_bs::runtime_models::bill::bill_data.dart::_BillData_project_bs::runtime_models::user::public_profile.dart::PublicProfile"><path id="project_bs::runtime_models::bill::bill_data.dart::_BillData-backto-project_bs::runtime_models::user::public_profile.dart::PublicProfile" fill="none" d="M927,471.32 C927,514.69 927,557.56 927,582.9" codeLine="41" style="stroke:#181818;stroke-width:1"/><polygon fill="none" points="927 458.17 923 464.17 927 470.17 931 464.17 927 458.17" style="stroke:#181818;stroke-width:1"/></g><g id="link_project_bs::runtime_models::bill::bill_data.dart::_BillData_project_bs::runtime_models::bill::item_group.dart::ItemGroup"><path id="project_bs::runtime_models::bill::bill_data.dart::_BillData-backto-project_bs::runtime_models::bill::item_group.dart::ItemGroup" fill="none" d="M800.67,467.86 C764.01,508.16 727.39,548.42 703.21,574.99" codeLine="42" style="stroke:#181818;stroke-width:1"/><polygon fill="#181818" points="809.48 458.17 802.484 459.918 801.407 467.048 808.403 465.3 809.48 458.17" style="stroke:#181818;stroke-width:1"/></g><g id="link_project_bs::runtime_models::bill::bill_data.dart::_BillData_project_bs::runtime_models::bill::modules::bill_module_tax.dart::BillModule_Tax"><path id="project_bs::runtime_models::bill::bill_data.dart::_BillData-backto-project_bs::runtime_models::bill::modules::bill_module_tax.dart::BillModule_Tax" fill="none" d="M1129.37,465.72 C1196.34,510.97 1263.69,556.47 1302.81,582.9" codeLine="43" style="stroke:#181818;stroke-width:1"/><polygon fill="#181818" points="1118.2 458.17 1120.929 464.845 1128.14 464.893 1125.411 458.218 1118.2 458.17" style="stroke:#181818;stroke-width:1"/></g><g id="link_project_bs::runtime_models::bill::bill_data.dart::_BillData_project_bs::runtime_models::bill::modules::bill_module_tip.dart::BillModule_Tip"><path id="project_bs::runtime_models::bill::bill_data.dart::_BillData-backto-project_bs::runtime_models::bill::modules::bill_module_tip.dart::BillModule_Tip" fill="none" d="M1138.66,392.8 C1340.2,453.54 1632.51,541.65 1769.61,582.98" codeLine="44" style="stroke:#181818;stroke-width:1"/><polygon fill="#181818" points="1126.13 389.02 1130.719 394.582 1137.619 392.485 1133.029 386.923 1126.13 389.02" style="stroke:#181818;stroke-width:1"/></g><g id="link_project_bs::runtime_models::bill::bill_data.dart::BillData_project_bs::runtime_models::bill::bill_data.dart::_BillData"><path id="project_bs::runtime_models::bill::bill_data.dart::BillData-backto-project_bs::runtime_models::bill::bill_data.dart::_BillData" fill="none" d="M880.34,143.09 C884.51,159.52 889.3,178.42 894.2,197.71" codeLine="45" style="stroke:#181818;stroke-width:1"/><polygon fill="#181818" points="879.07 138.07 877.399 147.776 880.296 142.917 885.155 145.814 879.07 138.07" style="stroke:#181818;stroke-width:1"/></g><g id="link_project_bs::runtime_models::bill::item.dart::Item_project_bs::runtime_models::bill::item.dart::_Item"><path id="project_bs::runtime_models::bill::item.dart::Item-backto-project_bs::runtime_models::bill::item.dart::_Item" fill="none" d="M505.5,1013.26 C501.84,1029.19 497.17,1049.52 492.96,1067.84" codeLine="55" style="stroke:#181818;stroke-width:1"/><polygon fill="#181818" points="506.71 1008.03 500.782 1015.895 505.582 1012.901 508.575 1017.701 506.71 1008.03" style="stroke:#181818;stroke-width:1"/></g><g id="link_project_bs::runtime_models::bill::item_group.dart::_ItemGroup_project_bs::runtime_models::bill::item.dart::Item"><path id="project_bs::runtime_models::bill::item_group.dart::_ItemGroup-backto-project_bs::runtime_models::bill::item.dart::Item" fill="none" d="M566.61,896.53 C552.1,919.51 537.19,943.12 526.62,959.84" codeLine="68" style="stroke:#181818;stroke-width:1"/><polygon fill="#181818" points="573.69 885.33 567.103 888.265 567.279 895.474 573.866 892.539 573.69 885.33" style="stroke:#181818;stroke-width:1"/></g><g id="link_project_bs::runtime_models::bill::item_group.dart::_ItemGroup_project_bs::runtime_models::bill::split_rules::split_rule.dart::SplitRule"><path id="project_bs::runtime_models::bill::item_group.dart::_ItemGroup-backto-project_bs::runtime_models::bill::split_rules::split_rule.dart::SplitRule" fill="none" d="M660.92,896.53 C675.3,919.51 690.06,943.12 700.52,959.84" codeLine="69" style="stroke:#181818;stroke-width:1"/><polygon fill="#181818" points="653.92 885.33 653.705 892.538 660.275 895.509 660.491 888.301 653.92 885.33" style="stroke:#181818;stroke-width:1"/></g><g id="link_project_bs::runtime_models::bill::item_group.dart::ItemGroup_project_bs::runtime_models::bill::item_group.dart::_ItemGroup"><path id="project_bs::runtime_models::bill::item_group.dart::ItemGroup-backto-project_bs::runtime_models::bill::item_group.dart::_ItemGroup" fill="none" d="M664.51,644.37 C655.69,674.94 642.88,719.35 632.37,755.8" codeLine="70" style="stroke:#181818;stroke-width:1"/><polygon fill="#181818" points="666 639.21 659.667 646.752 664.617 644.015 667.355 648.965 666 639.21" style="stroke:#181818;stroke-width:1"/></g><g id="link_project_bs::runtime_models::bill::modules::bill_module_tax.dart::BillModule_Tax_project_bs::runtime_models::bill::modules::bill_module_tax.dart::_BillModule_Tax"><path id="project_bs::runtime_models::bill::modules::bill_module_tax.dart::BillModule_Tax-backto-project_bs::runtime_models::bill::modules::bill_module_tax.dart::_BillModule_Tax" fill="none" d="M1337.27,636.16 C1337.64,675.64 1338.32,747.22 1338.7,788.29" codeLine="78" style="stroke:#181818;stroke-width:1"/><polygon fill="#181818" points="1337.22 631.04 1333.297 640.074 1337.263 636.04 1341.297 640.005 1337.22 631.04" style="stroke:#181818;stroke-width:1"/></g><g id="link_project_bs::runtime_models::bill::modules::bill_module_tip.dart::BillModule_Tip_project_bs::runtime_models::bill::modules::bill_module_tip.dart::_BillModule_Tip"><path id="project_bs::runtime_models::bill::modules::bill_module_tip.dart::BillModule_Tip-backto-project_bs::runtime_models::bill::modules::bill_module_tip.dart::_BillModule_Tip" fill="none" d="M1847.34,636.28 C1849.08,673.24 1852.15,738.16 1854.13,779.97" codeLine="87" style="stroke:#181818;stroke-width:1"/><polygon fill="#181818" points="1847.09 631.04 1843.506 640.214 1847.319 636.035 1851.498 639.847 1847.09 631.04" style="stroke:#181818;stroke-width:1"/></g><g id="link_project_bs::runtime_models::bill::split_rules::split_rule.dart::SplitRule_project_bs::runtime_models::bill::split_rules::split_rule.dart::_SplitRule"><path id="project_bs::runtime_models::bill::split_rules::split_rule.dart::SplitRule-backto-project_bs::runtime_models::bill::split_rules::split_rule.dart::_SplitRule" fill="none" d="M715.43,1013.19 C715.75,1034.15 716.19,1062.74 716.52,1084.38" codeLine="95" style="stroke:#181818;stroke-width:1"/><polygon fill="#181818" points="715.35 1008.03 711.505 1017.097 715.436 1013.029 719.504 1016.96 715.35 1008.03" style="stroke:#181818;stroke-width:1"/></g></g></svg>