<svg xmlns="http://www.w3.org/2000/svg" xmlns:xlink="http://www.w3.org/1999/xlink" width="1096" height="365" contentStyleType="text/css" preserveAspectRatio="none" style="width:1096px;height:365px;background:#fff" version="1.1" viewBox="0 0 1096 365" zoomAndPan="magnify"><g><g id="cluster_project_bs::services::bill_data_repository"><path fill="none" d="M598.5,6 L924.5,6 A3.75,3.75 0 0 1 927,8.5 L934,28.2969 L1071.5,28.2969 A2.5,2.5 0 0 1 1074,30.7969 L1074,232.5 A2.5,2.5 0 0 1 1071.5,235 L598.5,235 A2.5,2.5 0 0 1 596,232.5 L596,8.5 A2.5,2.5 0 0 1 598.5,6" style="stroke:#000;stroke-width:1.5"/><line style="stroke:#000;stroke-width:1.5" x1="596" x2="934" y1="28.297" y2="28.297"/><text x="600" y="20.995" fill="#000" font-family="sans-serif" font-size="14" font-weight="bold" lengthAdjust="spacing" textLength="325">project_bs::services::bill_data_repository</text></g><g id="cluster_project_bs::runtime_models::user::user_data"><path fill="none" d="M229.5,259 L586.5,259 A3.75,3.75 0 0 1 589,261.5 L596,281.2969 L596.5,281.2969 A2.5,2.5 0 0 1 599,283.7969 L599,355.5 A2.5,2.5 0 0 1 596.5,358 L229.5,358 A2.5,2.5 0 0 1 227,355.5 L227,261.5 A2.5,2.5 0 0 1 229.5,259" style="stroke:#000;stroke-width:1.5"/><line style="stroke:#000;stroke-width:1.5" x1="227" x2="596" y1="281.297" y2="281.297"/><text x="231" y="273.995" fill="#000" font-family="sans-serif" font-size="14" font-weight="bold" lengthAdjust="spacing" textLength="356">project_bs::runtime_models::user::user_data</text></g><g id="cluster_project_bs::runtime_models::bill::bill_data"><path fill="none" d="M747.5,259 L1076.5,259 A3.75,3.75 0 0 1 1079,261.5 L1086,281.2969 L1086.5,281.2969 A2.5,2.5 0 0 1 1089,283.7969 L1089,355.5 A2.5,2.5 0 0 1 1086.5,358 L747.5,358 A2.5,2.5 0 0 1 745,355.5 L745,261.5 A2.5,2.5 0 0 1 747.5,259" style="stroke:#000;stroke-width:1.5"/><line style="stroke:#000;stroke-width:1.5" x1="745" x2="1086" y1="281.297" y2="281.297"/><text x="749" y="273.995" fill="#000" font-family="sans-serif" font-size="14" font-weight="bold" lengthAdjust="spacing" textLength="328">project_bs::runtime_models::bill::bill_data</text></g><g id="cluster_project_bs::services::user_data_repository"><path fill="none" d="M8.5,14 L348.5,14 A3.75,3.75 0 0 1 351,16.5 L358,36.2969 L569.5,36.2969 A2.5,2.5 0 0 1 572,38.7969 L572,224.5 A2.5,2.5 0 0 1 569.5,227 L8.5,227 A2.5,2.5 0 0 1 6,224.5 L6,16.5 A2.5,2.5 0 0 1 8.5,14" style="stroke:#000;stroke-width:1.5"/><line style="stroke:#000;stroke-width:1.5" x1="6" x2="358" y1="36.297" y2="36.297"/><text x="10" y="28.995" fill="#000" font-family="sans-serif" font-size="14" font-weight="bold" lengthAdjust="spacing" textLength="339">project_bs::services::user_data_repository</text></g><g id="elem_project_bs::services::bill_data_repository.dart::BillDataRepository"><rect id="project_bs::services::bill_data_repository.dart::BillDataRepository" width="445" height="178.375" x="612.5" y="41" fill="#F1F1F1" codeLine="10" rx="2.5" ry="2.5" style="stroke:#181818;stroke-width:.5"/><ellipse cx="749.75" cy="57" fill="#ADD1B2" rx="11" ry="11" style="stroke:#181818;stroke-width:1"/><path fill="#000" d="M752.7188,62.6406 Q752.1406,62.9375 751.5,63.0781 Q750.8594,63.2344 750.1563,63.2344 Q747.6563,63.2344 746.3281,61.5938 Q745.0156,59.9375 745.0156,56.8125 Q745.0156,53.6875 746.3281,52.0313 Q747.6563,50.375 750.1563,50.375 Q750.8594,50.375 751.5,50.5313 Q752.1563,50.6875 752.7188,50.9844 L752.7188,53.7031 Q752.0938,53.125 751.5,52.8594 Q750.9063,52.5781 750.2813,52.5781 Q748.9375,52.5781 748.25,53.6563 Q747.5625,54.7188 747.5625,56.8125 Q747.5625,58.9063 748.25,59.9844 Q748.9375,61.0469 750.2813,61.0469 Q750.9063,61.0469 751.5,60.7813 Q752.0938,60.5 752.7188,59.9219 L752.7188,62.6406 Z"/><text x="770.25" y="61.847" fill="#000" font-family="sans-serif" font-size="14" lengthAdjust="spacing" textLength="162">dart::BillDataRepository</text><line style="stroke:#181818;stroke-width:.5" x1="613.5" x2="1056.5" y1="73" y2="73"/><rect width="6" height="6" x="620.5" fill="none" style="stroke:#c82930;stroke-width:1" y="83.648"/><text x="632.5" y="89.995" fill="#000" font-family="sans-serif" font-size="14" lengthAdjust="spacing" textLength="419">CollectionReference&lt;Map&lt;String, dynamic&gt;&gt; _billCollection</text><ellipse cx="623.5" cy="102.945" fill="none" rx="3" ry="3" style="stroke:#038048;stroke-width:1"/><text x="632.5" y="106.292" fill="#000" font-family="sans-serif" font-size="14" lengthAdjust="spacing" textLength="281">Stream&lt;List&lt;BillData&gt;?&gt; billDataStream</text><ellipse cx="623.5" cy="119.242" fill="none" rx="3" ry="3" style="stroke:#038048;stroke-width:1"/><text x="632.5" y="122.589" fill="#000" font-family="sans-serif" font-size="14" lengthAdjust="spacing" textLength="226">dynamic billDocumentSnapshots</text><ellipse cx="623.5" cy="135.539" fill="none" rx="3" ry="3" style="stroke:#038048;stroke-width:1"/><text x="632.5" y="138.886" fill="#000" font-family="sans-serif" font-size="14" lengthAdjust="spacing" textLength="138">UserData? userData</text><line style="stroke:#181818;stroke-width:.5" x1="613.5" x2="1056.5" y1="146.188" y2="146.188"/><ellipse cx="623.5" cy="159.836" fill="#84BE84" rx="3" ry="3" style="stroke:#038048;stroke-width:1"/><text x="632.5" y="163.183" fill="#000" font-family="sans-serif" font-size="14" lengthAdjust="spacing" textLength="151">T Function&lt;T&gt;() read</text><ellipse cx="623.5" cy="176.133" fill="#84BE84" rx="3" ry="3" style="stroke:#038048;stroke-width:1"/><text x="632.5" y="179.48" fill="#000" font-family="sans-serif" font-size="14" lengthAdjust="spacing" textLength="134">dynamic createBill()</text><ellipse cx="623.5" cy="192.43" fill="#84BE84" rx="3" ry="3" style="stroke:#038048;stroke-width:1"/><text x="632.5" y="195.776" fill="#000" font-family="sans-serif" font-size="14" lengthAdjust="spacing" textLength="157">dynamic pushBillData()</text><ellipse cx="623.5" cy="208.727" fill="#84BE84" rx="3" ry="3" style="stroke:#038048;stroke-width:1"/><text x="632.5" y="212.073" fill="#000" font-family="sans-serif" font-size="14" lengthAdjust="spacing" textLength="236">BillData? snapshotToRuntimeObj()</text></g><g id="elem_project_bs::runtime_models::user::user_data.dart::UserData"><rect id="project_bs::runtime_models::user::user_data.dart::UserData" width="133" height="48" x="343.5" y="294" fill="#F1F1F1" rx="2.5" ry="2.5" style="stroke:#181818;stroke-width:.5"/><ellipse cx="358.5" cy="310" fill="#ADD1B2" rx="11" ry="11" style="stroke:#181818;stroke-width:1"/><path fill="#000" d="M361.4688,315.6406 Q360.8906,315.9375 360.25,316.0781 Q359.6094,316.2344 358.9063,316.2344 Q356.4063,316.2344 355.0781,314.5938 Q353.7656,312.9375 353.7656,309.8125 Q353.7656,306.6875 355.0781,305.0313 Q356.4063,303.375 358.9063,303.375 Q359.6094,303.375 360.25,303.5313 Q360.9063,303.6875 361.4688,303.9844 L361.4688,306.7031 Q360.8438,306.125 360.25,305.8594 Q359.6563,305.5781 359.0313,305.5781 Q357.6875,305.5781 357,306.6563 Q356.3125,307.7188 356.3125,309.8125 Q356.3125,311.9063 357,312.9844 Q357.6875,314.0469 359.0313,314.0469 Q359.6563,314.0469 360.25,313.7813 Q360.8438,313.5 361.4688,312.9219 L361.4688,315.6406 Z"/><text x="372.5" y="314.847" fill="#000" font-family="sans-serif" font-size="14" lengthAdjust="spacing" textLength="101">dart::UserData</text><line style="stroke:#181818;stroke-width:.5" x1="344.5" x2="475.5" y1="326" y2="326"/><line style="stroke:#181818;stroke-width:.5" x1="344.5" x2="475.5" y1="334" y2="334"/></g><g id="elem_project_bs::runtime_models::bill::bill_data.dart::BillData"><rect id="project_bs::runtime_models::bill::bill_data.dart::BillData" width="120" height="48" x="775" y="294" fill="#F1F1F1" rx="2.5" ry="2.5" style="stroke:#181818;stroke-width:.5"/><ellipse cx="790" cy="310" fill="#ADD1B2" rx="11" ry="11" style="stroke:#181818;stroke-width:1"/><path fill="#000" d="M792.9688,315.6406 Q792.3906,315.9375 791.75,316.0781 Q791.1094,316.2344 790.4063,316.2344 Q787.9063,316.2344 786.5781,314.5938 Q785.2656,312.9375 785.2656,309.8125 Q785.2656,306.6875 786.5781,305.0313 Q787.9063,303.375 790.4063,303.375 Q791.1094,303.375 791.75,303.5313 Q792.4063,303.6875 792.9688,303.9844 L792.9688,306.7031 Q792.3438,306.125 791.75,305.8594 Q791.1563,305.5781 790.5313,305.5781 Q789.1875,305.5781 788.5,306.6563 Q787.8125,307.7188 787.8125,309.8125 Q787.8125,311.9063 788.5,312.9844 Q789.1875,314.0469 790.5313,314.0469 Q791.1563,314.0469 791.75,313.7813 Q792.3438,313.5 792.9688,312.9219 L792.9688,315.6406 Z"/><text x="804" y="314.847" fill="#000" font-family="sans-serif" font-size="14" lengthAdjust="spacing" textLength="88">dart::BillData</text><line style="stroke:#181818;stroke-width:.5" x1="776" x2="894" y1="326" y2="326"/><line style="stroke:#181818;stroke-width:.5" x1="776" x2="894" y1="334" y2="334"/></g><g id="elem_project_bs::services::user_data_repository.dart::UserDataRepository"><rect id="project_bs::services::user_data_repository.dart::UserDataRepository" width="533" height="162.078" x="22.5" y="49" fill="#F1F1F1" codeLine="23" rx="2.5" ry="2.5" style="stroke:#181818;stroke-width:.5"/><ellipse cx="197.25" cy="65" fill="#ADD1B2" rx="11" ry="11" style="stroke:#181818;stroke-width:1"/><path fill="#000" d="M200.2188,70.6406 Q199.6406,70.9375 199,71.0781 Q198.3594,71.2344 197.6563,71.2344 Q195.1563,71.2344 193.8281,69.5938 Q192.5156,67.9375 192.5156,64.8125 Q192.5156,61.6875 193.8281,60.0313 Q195.1563,58.375 197.6563,58.375 Q198.3594,58.375 199,58.5313 Q199.6563,58.6875 200.2188,58.9844 L200.2188,61.7031 Q199.5938,61.125 199,60.8594 Q198.4063,60.5781 197.7813,60.5781 Q196.4375,60.5781 195.75,61.6563 Q195.0625,62.7188 195.0625,64.8125 Q195.0625,66.9063 195.75,67.9844 Q196.4375,69.0469 197.7813,69.0469 Q198.4063,69.0469 199,68.7813 Q199.5938,68.5 200.2188,67.9219 L200.2188,70.6406 Z"/><text x="217.75" y="69.847" fill="#000" font-family="sans-serif" font-size="14" lengthAdjust="spacing" textLength="175">dart::UserDataRepository</text><line style="stroke:#181818;stroke-width:.5" x1="23.5" x2="554.5" y1="81" y2="81"/><ellipse cx="33.5" cy="94.648" fill="none" rx="3" ry="3" style="stroke:#038048;stroke-width:1"/><text x="42.5" y="97.995" fill="#000" font-family="sans-serif" font-size="14" lengthAdjust="spacing" textLength="72">String? uid</text><ellipse cx="33.5" cy="110.945" fill="none" rx="3" ry="3" style="stroke:#038048;stroke-width:1"/><text x="42.5" y="114.292" fill="#000" font-family="sans-serif" font-size="14" lengthAdjust="spacing" textLength="124">dynamic userData</text><ellipse cx="33.5" cy="127.242" fill="none" rx="3" ry="3" style="stroke:#038048;stroke-width:1"/><text x="42.5" y="130.589" fill="#000" font-family="sans-serif" font-size="14" lengthAdjust="spacing" textLength="260">Stream&lt;UserData?&gt; userDataStream</text><ellipse cx="33.5" cy="143.539" fill="none" rx="3" ry="3" style="stroke:#038048;stroke-width:1"/><text x="42.5" y="146.886" fill="#000" font-family="sans-serif" font-size="14" lengthAdjust="spacing" textLength="507">DocumentReference&lt;Map&lt;String, dynamic&gt;&gt; userDocumentReference</text><line style="stroke:#181818;stroke-width:.5" x1="23.5" x2="554.5" y1="154.188" y2="154.188"/><ellipse cx="33.5" cy="167.836" fill="#84BE84" rx="3" ry="3" style="stroke:#038048;stroke-width:1"/><text x="42.5" y="171.183" fill="#000" font-family="sans-serif" font-size="14" lengthAdjust="spacing" textLength="151">T Function&lt;T&gt;() read</text><ellipse cx="33.5" cy="184.133" fill="#84BE84" rx="3" ry="3" style="stroke:#038048;stroke-width:1"/><text x="42.5" y="187.48" fill="#000" font-family="sans-serif" font-size="14" lengthAdjust="spacing" textLength="170">dynamic pushUserData()</text><ellipse cx="33.5" cy="200.43" fill="#84BE84" rx="3" ry="3" style="stroke:#038048;stroke-width:1"/><text x="42.5" y="203.776" fill="#000" font-family="sans-serif" font-size="14" lengthAdjust="spacing" textLength="249">UserData? snapshotToRuntimeObj()</text></g><g id="link_project_bs::services::bill_data_repository.dart::BillDataRepository_project_bs::runtime_models::user::user_data.dart::UserData"><path id="project_bs::services::bill_data_repository.dart::BillDataRepository-backto-project_bs::runtime_models::user::user_data.dart::UserData" fill="none" d="M621.49,224.44 C562.41,250.3 503.43,276.11 462.82,293.88" codeLine="20" style="stroke:#181818;stroke-width:1"/><polygon fill="none" points="633.7 219.1 626.6 217.841 622.707 223.911 629.807 225.17 633.7 219.1" style="stroke:#181818;stroke-width:1"/></g><g id="link_project_bs::services::bill_data_repository.dart::BillDataRepository_project_bs::runtime_models::bill::bill_data.dart::BillData"><path id="project_bs::services::bill_data_repository.dart::BillDataRepository-backto-project_bs::runtime_models::bill::bill_data.dart::BillData" fill="none" d="M835,232.37 C835,255.5 835,277.93 835,293.88" codeLine="21" style="stroke:#181818;stroke-width:1"/><polygon fill="none" points="835 219.1 831 225.1 835 231.1 839 225.1 835 219.1" style="stroke:#181818;stroke-width:1"/></g><g id="link_project_bs::services::user_data_repository.dart::UserDataRepository_project_bs::runtime_models::user::user_data.dart::UserData"><path id="project_bs::services::user_data_repository.dart::UserDataRepository-backto-project_bs::runtime_models::user::user_data.dart::UserData" fill="none" d="M348.29,222.15 C365.53,248.63 382.89,275.32 394.79,293.61" codeLine="32" style="stroke:#181818;stroke-width:1"/><polygon fill="none" points="341.19 211.23 341.106 218.441 347.73 221.291 347.814 214.08 341.19 211.23" style="stroke:#181818;stroke-width:1"/></g></g></svg>