<svg xmlns="http://www.w3.org/2000/svg" xmlns:xlink="http://www.w3.org/1999/xlink" width="1298" height="828" contentStyleType="text/css" preserveAspectRatio="none" style="width:1298px;height:828px;background:#fff" version="1.1" viewBox="0 0 1298 828" zoomAndPan="magnify"><g><g id="cluster_project_bs::net_models::user::public_profile_dto"><path fill="none" d="M8.5,532.5 L391.5,532.5 A3.75,3.75 0 0 1 394,535 L401,554.7969 L401.5,554.7969 A2.5,2.5 0 0 1 404,557.2969 L404,818.5 A2.5,2.5 0 0 1 401.5,821 L8.5,821 A2.5,2.5 0 0 1 6,818.5 L6,535 A2.5,2.5 0 0 1 8.5,532.5" style="stroke:#000;stroke-width:1.5"/><line style="stroke:#000;stroke-width:1.5" x1="6" x2="401" y1="554.797" y2="554.797"/><text x="10" y="547.495" fill="#000" font-family="sans-serif" font-size="14" font-weight="bold" lengthAdjust="spacing" textLength="382">project_bs::net_models::user::public_profile_dto</text></g><g id="cluster_project_bs::net_models::user::user_data_dto"><path fill="none" d="M61.5,179.5 L416.5,179.5 A3.75,3.75 0 0 1 419,182 L426,201.7969 L432.5,201.7969 A2.5,2.5 0 0 1 435,204.2969 L435,504.5 A2.5,2.5 0 0 1 432.5,507 L61.5,507 A2.5,2.5 0 0 1 59,504.5 L59,182 A2.5,2.5 0 0 1 61.5,179.5" style="stroke:#000;stroke-width:1.5"/><line style="stroke:#000;stroke-width:1.5" x1="59" x2="426" y1="201.797" y2="201.797"/><text x="63" y="194.495" fill="#000" font-family="sans-serif" font-size="14" font-weight="bold" lengthAdjust="spacing" textLength="354">project_bs::net_models::user::user_data_dto</text></g><g id="cluster_project_bs::runtime_models::user::private_profile"><path fill="none" d="M885.5,375.5 L1278.5,375.5 A3.75,3.75 0 0 1 1281,378 L1288,397.7969 L1288.5,397.7969 A2.5,2.5 0 0 1 1291,400.2969 L1291,645 A2.5,2.5 0 0 1 1288.5,647.5 L885.5,647.5 A2.5,2.5 0 0 1 883,645 L883,378 A2.5,2.5 0 0 1 885.5,375.5" style="stroke:#000;stroke-width:1.5"/><line style="stroke:#000;stroke-width:1.5" x1="883" x2="1288" y1="397.797" y2="397.797"/><text x="887" y="390.495" fill="#000" font-family="sans-serif" font-size="14" font-weight="bold" lengthAdjust="spacing" textLength="392">project_bs::runtime_models::user::private_profile</text></g><g id="cluster_project_bs::runtime_models::user::public_profile"><path fill="none" d="M461.5,351 L846.5,351 A3.75,3.75 0 0 1 849,353.5 L856,373.2969 L856.5,373.2969 A2.5,2.5 0 0 1 859,375.7969 L859,661.5 A2.5,2.5 0 0 1 856.5,664 L461.5,664 A2.5,2.5 0 0 1 459,661.5 L459,353.5 A2.5,2.5 0 0 1 461.5,351" style="stroke:#000;stroke-width:1.5"/><line style="stroke:#000;stroke-width:1.5" x1="459" x2="856" y1="373.297" y2="373.297"/><text x="463" y="365.995" fill="#000" font-family="sans-serif" font-size="14" font-weight="bold" lengthAdjust="spacing" textLength="384">project_bs::runtime_models::user::public_profile</text></g><g id="cluster_project_bs::runtime_models::user::user_data"><path fill="none" d="M461.5,6 L818.5,6 A3.75,3.75 0 0 1 821,8.5 L828,28.2969 L856.5,28.2969 A2.5,2.5 0 0 1 859,30.7969 L859,324.5 A2.5,2.5 0 0 1 856.5,327 L461.5,327 A2.5,2.5 0 0 1 459,324.5 L459,8.5 A2.5,2.5 0 0 1 461.5,6" style="stroke:#000;stroke-width:1.5"/><line style="stroke:#000;stroke-width:1.5" x1="459" x2="828" y1="28.297" y2="28.297"/><text x="463" y="20.995" fill="#000" font-family="sans-serif" font-size="14" font-weight="bold" lengthAdjust="spacing" textLength="356">project_bs::runtime_models::user::user_data</text></g><g id="elem_project_bs::net_models::user::public_profile_dto.dart::PublicProfileDTO"><rect id="project_bs::net_models::user::public_profile_dto.dart::PublicProfileDTO" width="218" height="64.297" x="154" y="567.5" fill="#F1F1F1" codeLine="1" rx="2.5" ry="2.5" style="stroke:#181818;stroke-width:.5"/><ellipse cx="184.75" cy="583.5" fill="#ADD1B2" rx="11" ry="11" style="stroke:#181818;stroke-width:1"/><path fill="#000" d="M187.7188,589.1406 Q187.1406,589.4375 186.5,589.5781 Q185.8594,589.7344 185.1563,589.7344 Q182.6563,589.7344 181.3281,588.0938 Q180.0156,586.4375 180.0156,583.3125 Q180.0156,580.1875 181.3281,578.5313 Q182.6563,576.875 185.1563,576.875 Q185.8594,576.875 186.5,577.0313 Q187.1563,577.1875 187.7188,577.4844 L187.7188,580.2031 Q187.0938,579.625 186.5,579.3594 Q185.9063,579.0781 185.2813,579.0781 Q183.9375,579.0781 183.25,580.1563 Q182.5625,581.2188 182.5625,583.3125 Q182.5625,585.4063 183.25,586.4844 Q183.9375,587.5469 185.2813,587.5469 Q185.9063,587.5469 186.5,587.2813 Q187.0938,587 187.7188,586.4219 L187.7188,589.1406 Z"/><text x="202.25" y="588.347" fill="#000" font-family="sans-serif" font-size="14" lengthAdjust="spacing" textLength="151">dart::PublicProfileDTO</text><line style="stroke:#181818;stroke-width:.5" x1="155" x2="371" y1="599.5" y2="599.5"/><line style="stroke:#181818;stroke-width:.5" x1="155" x2="371" y1="607.5" y2="607.5"/><ellipse cx="165" cy="621.148" fill="#84BE84" rx="3" ry="3" style="stroke:#038048;stroke-width:1"/><text x="174" y="624.495" fill="#000" font-family="sans-serif" font-size="14" lengthAdjust="spacing" textLength="192">PublicProfile toRuntimeObj()</text></g><g id="elem_project_bs::net_models::user::public_profile_dto.dart::_PublicProfileDTO"><rect id="project_bs::net_models::user::public_profile_dto.dart::_PublicProfileDTO" width="190" height="96.891" x="168" y="708" fill="#F1F1F1" codeLine="5" rx="2.5" ry="2.5" style="stroke:#181818;stroke-width:.5"/><ellipse cx="183" cy="724" fill="#A9DCDF" rx="11" ry="11" style="stroke:#181818;stroke-width:1"/><path fill="#000" d="M183.1094,719.3438 L181.9531,724.4219 L184.2813,724.4219 L183.1094,719.3438 Z M181.625,717.1094 L184.6094,717.1094 L187.9688,729.5 L185.5156,729.5 L184.75,726.4375 L181.4688,726.4375 L180.7188,729.5 L178.2813,729.5 L181.625,717.1094 Z"/><text x="197" y="728.847" fill="#000" font-family="sans-serif" font-size="14" font-style="italic" lengthAdjust="spacing" textLength="158">dart::_PublicProfileDTO</text><line style="stroke:#181818;stroke-width:.5" x1="169" x2="357" y1="740" y2="740"/><ellipse cx="179" cy="753.648" fill="none" rx="3" ry="3" style="stroke:#038048;stroke-width:1"/><text x="188" y="756.995" fill="#000" font-family="sans-serif" font-size="14" lengthAdjust="spacing" textLength="65">String uid</text><ellipse cx="179" cy="769.945" fill="none" rx="3" ry="3" style="stroke:#038048;stroke-width:1"/><text x="188" y="773.292" fill="#000" font-family="sans-serif" font-size="14" lengthAdjust="spacing" textLength="121">String? createdBy</text><ellipse cx="179" cy="786.242" fill="none" rx="3" ry="3" style="stroke:#038048;stroke-width:1"/><text x="188" y="789.589" fill="#000" font-family="sans-serif" font-size="14" lengthAdjust="spacing" textLength="83">String name</text><line style="stroke:#181818;stroke-width:.5" x1="169" x2="357" y1="796.891" y2="796.891"/></g><g id="elem_project_bs::net_models::user::user_data_dto.dart::UserDataDTO"><rect id="project_bs::net_models::user::user_data_dto.dart::UserDataDTO" width="199" height="64.297" x="183.5" y="214.5" fill="#F1F1F1" codeLine="12" rx="2.5" ry="2.5" style="stroke:#181818;stroke-width:.5"/><ellipse cx="214.25" cy="230.5" fill="#ADD1B2" rx="11" ry="11" style="stroke:#181818;stroke-width:1"/><path fill="#000" d="M217.2188,236.1406 Q216.6406,236.4375 216,236.5781 Q215.3594,236.7344 214.6563,236.7344 Q212.1563,236.7344 210.8281,235.0938 Q209.5156,233.4375 209.5156,230.3125 Q209.5156,227.1875 210.8281,225.5313 Q212.1563,223.875 214.6563,223.875 Q215.3594,223.875 216,224.0313 Q216.6563,224.1875 217.2188,224.4844 L217.2188,227.2031 Q216.5938,226.625 216,226.3594 Q215.4063,226.0781 214.7813,226.0781 Q213.4375,226.0781 212.75,227.1563 Q212.0625,228.2188 212.0625,230.3125 Q212.0625,232.4063 212.75,233.4844 Q213.4375,234.5469 214.7813,234.5469 Q215.4063,234.5469 216,234.2813 Q216.5938,234 217.2188,233.4219 L217.2188,236.1406 Z"/><text x="231.75" y="235.347" fill="#000" font-family="sans-serif" font-size="14" lengthAdjust="spacing" textLength="132">dart::UserDataDTO</text><line style="stroke:#181818;stroke-width:.5" x1="184.5" x2="381.5" y1="246.5" y2="246.5"/><line style="stroke:#181818;stroke-width:.5" x1="184.5" x2="381.5" y1="254.5" y2="254.5"/><ellipse cx="194.5" cy="268.148" fill="#84BE84" rx="3" ry="3" style="stroke:#038048;stroke-width:1"/><text x="203.5" y="271.495" fill="#000" font-family="sans-serif" font-size="14" lengthAdjust="spacing" textLength="173">UserData toRuntimeObj()</text></g><g id="elem_project_bs::net_models::user::user_data_dto.dart::_UserDataDTO"><rect id="project_bs::net_models::user::user_data_dto.dart::_UserDataDTO" width="345" height="113.188" x="74.5" y="378" fill="#F1F1F1" codeLine="16" rx="2.5" ry="2.5" style="stroke:#181818;stroke-width:.5"/><ellipse cx="173.25" cy="394" fill="#A9DCDF" rx="11" ry="11" style="stroke:#181818;stroke-width:1"/><path fill="#000" d="M173.3594,389.3438 L172.2031,394.4219 L174.5313,394.4219 L173.3594,389.3438 Z M171.875,387.1094 L174.8594,387.1094 L178.2188,399.5 L175.7656,399.5 L175,396.4375 L171.7188,396.4375 L170.9688,399.5 L168.5313,399.5 L171.875,387.1094 Z"/><text x="193.75" y="398.847" fill="#000" font-family="sans-serif" font-size="14" font-style="italic" lengthAdjust="spacing" textLength="139">dart::_UserDataDTO</text><line style="stroke:#181818;stroke-width:.5" x1="75.5" x2="418.5" y1="410" y2="410"/><ellipse cx="85.5" cy="423.648" fill="none" rx="3" ry="3" style="stroke:#038048;stroke-width:1"/><text x="94.5" y="426.995" fill="#000" font-family="sans-serif" font-size="14" lengthAdjust="spacing" textLength="201">PublicProfileDTO publicProfile</text><ellipse cx="85.5" cy="439.945" fill="none" rx="3" ry="3" style="stroke:#038048;stroke-width:1"/><text x="94.5" y="443.292" fill="#000" font-family="sans-serif" font-size="14" lengthAdjust="spacing" textLength="235">List&lt;String&gt; registeredFriendUids</text><ellipse cx="85.5" cy="456.242" fill="none" rx="3" ry="3" style="stroke:#038048;stroke-width:1"/><text x="94.5" y="459.589" fill="#000" font-family="sans-serif" font-size="14" lengthAdjust="spacing" textLength="319">List&lt;PublicProfileDTO&gt; nonRegisteredFriends</text><ellipse cx="85.5" cy="472.539" fill="none" rx="3" ry="3" style="stroke:#038048;stroke-width:1"/><text x="94.5" y="475.886" fill="#000" font-family="sans-serif" font-size="14" lengthAdjust="spacing" textLength="209">DateTime lastUpdatedSession</text><line style="stroke:#181818;stroke-width:.5" x1="75.5" x2="418.5" y1="483.188" y2="483.188"/></g><g id="elem_project_bs::runtime_models::user::private_profile.dart::PrivateProfile"><rect id="project_bs::runtime_models::user::private_profile.dart::PrivateProfile" width="157" height="48" x="906.5" y="410.5" fill="#F1F1F1" codeLine="25" rx="2.5" ry="2.5" style="stroke:#181818;stroke-width:.5"/><ellipse cx="921.5" cy="426.5" fill="#ADD1B2" rx="11" ry="11" style="stroke:#181818;stroke-width:1"/><path fill="#000" d="M924.4688,432.1406 Q923.8906,432.4375 923.25,432.5781 Q922.6094,432.7344 921.9063,432.7344 Q919.4063,432.7344 918.0781,431.0938 Q916.7656,429.4375 916.7656,426.3125 Q916.7656,423.1875 918.0781,421.5313 Q919.4063,419.875 921.9063,419.875 Q922.6094,419.875 923.25,420.0313 Q923.9063,420.1875 924.4688,420.4844 L924.4688,423.2031 Q923.8438,422.625 923.25,422.3594 Q922.6563,422.0781 922.0313,422.0781 Q920.6875,422.0781 920,423.1563 Q919.3125,424.2188 919.3125,426.3125 Q919.3125,428.4063 920,429.4844 Q920.6875,430.5469 922.0313,430.5469 Q922.6563,430.5469 923.25,430.2813 Q923.8438,430 924.4688,429.4219 L924.4688,432.1406 Z"/><text x="935.5" y="431.347" fill="#000" font-family="sans-serif" font-size="14" lengthAdjust="spacing" textLength="125">dart::PrivateProfile</text><line style="stroke:#181818;stroke-width:.5" x1="907.5" x2="1062.5" y1="442.5" y2="442.5"/><line style="stroke:#181818;stroke-width:.5" x1="907.5" x2="1062.5" y1="450.5" y2="450.5"/></g><g id="elem_project_bs::runtime_models::user::private_profile.dart::_PrivateProfile"><rect id="project_bs::runtime_models::user::private_profile.dart::_PrivateProfile" width="188" height="64.297" x="899" y="567.5" fill="#F1F1F1" codeLine="28" rx="2.5" ry="2.5" style="stroke:#181818;stroke-width:.5"/><ellipse cx="924.8" cy="583.5" fill="#A9DCDF" rx="11" ry="11" style="stroke:#181818;stroke-width:1"/><path fill="#000" d="M924.9094,578.8438 L923.7531,583.9219 L926.0813,583.9219 L924.9094,578.8438 Z M923.425,576.6094 L926.4094,576.6094 L929.7688,589 L927.3156,589 L926.55,585.9375 L923.2688,585.9375 L922.5188,589 L920.0813,589 L923.425,576.6094 Z"/><text x="941.2" y="588.347" fill="#000" font-family="sans-serif" font-size="14" font-style="italic" lengthAdjust="spacing" textLength="132">dart::_PrivateProfile</text><line style="stroke:#181818;stroke-width:.5" x1="900" x2="1086" y1="599.5" y2="599.5"/><ellipse cx="910" cy="613.148" fill="none" rx="3" ry="3" style="stroke:#038048;stroke-width:1"/><text x="919" y="616.495" fill="#000" font-family="sans-serif" font-size="14" lengthAdjust="spacing" textLength="162">ThemeData themeData</text><line style="stroke:#181818;stroke-width:.5" x1="900" x2="1086" y1="623.797" y2="623.797"/></g><g id="elem_project_bs::runtime_models::user::public_profile.dart::PublicProfile"><rect id="project_bs::runtime_models::user::public_profile.dart::PublicProfile" width="270" height="96.891" x="499" y="386" fill="#F1F1F1" codeLine="33" rx="2.5" ry="2.5" style="stroke:#181818;stroke-width:.5"/><ellipse cx="569.75" cy="402" fill="#ADD1B2" rx="11" ry="11" style="stroke:#181818;stroke-width:1"/><path fill="#000" d="M572.7188,407.6406 Q572.1406,407.9375 571.5,408.0781 Q570.8594,408.2344 570.1563,408.2344 Q567.6563,408.2344 566.3281,406.5938 Q565.0156,404.9375 565.0156,401.8125 Q565.0156,398.6875 566.3281,397.0313 Q567.6563,395.375 570.1563,395.375 Q570.8594,395.375 571.5,395.5313 Q572.1563,395.6875 572.7188,395.9844 L572.7188,398.7031 Q572.0938,398.125 571.5,397.8594 Q570.9063,397.5781 570.2813,397.5781 Q568.9375,397.5781 568.25,398.6563 Q567.5625,399.7188 567.5625,401.8125 Q567.5625,403.9063 568.25,404.9844 Q568.9375,406.0469 570.2813,406.0469 Q570.9063,406.0469 571.5,405.7813 Q572.0938,405.5 572.7188,404.9219 L572.7188,407.6406 Z"/><text x="590.25" y="406.847" fill="#000" font-family="sans-serif" font-size="14" lengthAdjust="spacing" textLength="120">dart::PublicProfile</text><line style="stroke:#181818;stroke-width:.5" x1="500" x2="768" y1="418" y2="418"/><ellipse cx="510" cy="431.648" fill="none" rx="3" ry="3" style="stroke:#038048;stroke-width:1"/><text x="519" y="434.995" fill="#000" font-family="sans-serif" font-size="14" lengthAdjust="spacing" textLength="121">bool isRegistered</text><ellipse cx="510" cy="447.945" fill="none" rx="3" ry="3" style="stroke:#038048;stroke-width:1"/><text x="519" y="451.292" fill="#000" font-family="sans-serif" font-size="14" lengthAdjust="spacing" textLength="244">PublicProfileDTO toDataTransferObj</text><line style="stroke:#181818;stroke-width:.5" x1="500" x2="768" y1="458.594" y2="458.594"/><ellipse cx="510" cy="472.242" fill="#84BE84" rx="3" ry="3" style="stroke:#038048;stroke-width:1"/><text x="519" y="475.589" fill="#000" font-family="sans-serif" font-size="14" lengthAdjust="spacing" textLength="190">void syncToActiveAccount()</text></g><g id="elem_project_bs::runtime_models::user::public_profile.dart::_PublicProfile"><rect id="project_bs::runtime_models::user::public_profile.dart::_PublicProfile" width="190" height="96.891" x="539" y="551" fill="#F1F1F1" codeLine="40" rx="2.5" ry="2.5" style="stroke:#181818;stroke-width:.5"/><ellipse cx="567.95" cy="567" fill="#A9DCDF" rx="11" ry="11" style="stroke:#181818;stroke-width:1"/><path fill="#000" d="M568.0594,562.3438 L566.9031,567.4219 L569.2313,567.4219 L568.0594,562.3438 Z M566.575,560.1094 L569.5594,560.1094 L572.9188,572.5 L570.4656,572.5 L569.7,569.4375 L566.4188,569.4375 L565.6688,572.5 L563.2313,572.5 L566.575,560.1094 Z"/><text x="585.05" y="571.847" fill="#000" font-family="sans-serif" font-size="14" font-style="italic" lengthAdjust="spacing" textLength="127">dart::_PublicProfile</text><line style="stroke:#181818;stroke-width:.5" x1="540" x2="728" y1="583" y2="583"/><ellipse cx="550" cy="596.648" fill="none" rx="3" ry="3" style="stroke:#038048;stroke-width:1"/><text x="559" y="599.995" fill="#000" font-family="sans-serif" font-size="14" lengthAdjust="spacing" textLength="65">String uid</text><ellipse cx="550" cy="612.945" fill="none" rx="3" ry="3" style="stroke:#038048;stroke-width:1"/><text x="559" y="616.292" fill="#000" font-family="sans-serif" font-size="14" lengthAdjust="spacing" textLength="164">PublicProfile? createdBy</text><ellipse cx="550" cy="629.242" fill="none" rx="3" ry="3" style="stroke:#038048;stroke-width:1"/><text x="559" y="632.589" fill="#000" font-family="sans-serif" font-size="14" lengthAdjust="spacing" textLength="83">String name</text><line style="stroke:#181818;stroke-width:.5" x1="540" x2="728" y1="639.891" y2="639.891"/></g><g id="elem_project_bs::runtime_models::user::user_data.dart::UserData"><rect id="project_bs::runtime_models::user::user_data.dart::UserData" width="251" height="80.594" x="504.5" y="41" fill="#F1F1F1" codeLine="48" rx="2.5" ry="2.5" style="stroke:#181818;stroke-width:.5"/><ellipse cx="575.25" cy="57" fill="#ADD1B2" rx="11" ry="11" style="stroke:#181818;stroke-width:1"/><path fill="#000" d="M578.2188,62.6406 Q577.6406,62.9375 577,63.0781 Q576.3594,63.2344 575.6563,63.2344 Q573.1563,63.2344 571.8281,61.5938 Q570.5156,59.9375 570.5156,56.8125 Q570.5156,53.6875 571.8281,52.0313 Q573.1563,50.375 575.6563,50.375 Q576.3594,50.375 577,50.5313 Q577.6563,50.6875 578.2188,50.9844 L578.2188,53.7031 Q577.5938,53.125 577,52.8594 Q576.4063,52.5781 575.7813,52.5781 Q574.4375,52.5781 573.75,53.6563 Q573.0625,54.7188 573.0625,56.8125 Q573.0625,58.9063 573.75,59.9844 Q574.4375,61.0469 575.7813,61.0469 Q576.4063,61.0469 577,60.7813 Q577.5938,60.5 578.2188,59.9219 L578.2188,62.6406 Z"/><text x="595.75" y="61.847" fill="#000" font-family="sans-serif" font-size="14" lengthAdjust="spacing" textLength="101">dart::UserData</text><line style="stroke:#181818;stroke-width:.5" x1="505.5" x2="754.5" y1="73" y2="73"/><ellipse cx="515.5" cy="86.648" fill="none" rx="3" ry="3" style="stroke:#038048;stroke-width:1"/><text x="524.5" y="89.995" fill="#000" font-family="sans-serif" font-size="14" lengthAdjust="spacing" text-decoration="underline" textLength="198">int nonRegisteredFriendLimit</text><ellipse cx="515.5" cy="102.945" fill="none" rx="3" ry="3" style="stroke:#038048;stroke-width:1"/><text x="524.5" y="106.292" fill="#000" font-family="sans-serif" font-size="14" lengthAdjust="spacing" textLength="225">UserDataDTO toDataTransferObj</text><line style="stroke:#181818;stroke-width:.5" x1="505.5" x2="754.5" y1="113.594" y2="113.594"/></g><g id="elem_project_bs::runtime_models::user::user_data.dart::_UserData"><rect id="project_bs::runtime_models::user::user_data.dart::_UserData" width="368" height="129.484" x="475" y="182" fill="#F1F1F1" codeLine="54" rx="2.5" ry="2.5" style="stroke:#181818;stroke-width:.5"/><ellipse cx="600.75" cy="198" fill="#A9DCDF" rx="11" ry="11" style="stroke:#181818;stroke-width:1"/><path fill="#000" d="M600.8594,193.3438 L599.7031,198.4219 L602.0313,198.4219 L600.8594,193.3438 Z M599.375,191.1094 L602.3594,191.1094 L605.7188,203.5 L603.2656,203.5 L602.5,200.4375 L599.2188,200.4375 L598.4688,203.5 L596.0313,203.5 L599.375,191.1094 Z"/><text x="621.25" y="202.847" fill="#000" font-family="sans-serif" font-size="14" font-style="italic" lengthAdjust="spacing" textLength="108">dart::_UserData</text><line style="stroke:#181818;stroke-width:.5" x1="476" x2="842" y1="214" y2="214"/><ellipse cx="486" cy="227.648" fill="none" rx="3" ry="3" style="stroke:#038048;stroke-width:1"/><text x="495" y="230.995" fill="#000" font-family="sans-serif" font-size="14" lengthAdjust="spacing" textLength="65">String uid</text><ellipse cx="486" cy="243.945" fill="none" rx="3" ry="3" style="stroke:#038048;stroke-width:1"/><text x="495" y="247.292" fill="#000" font-family="sans-serif" font-size="14" lengthAdjust="spacing" textLength="170">PublicProfile publicProfile</text><ellipse cx="486" cy="260.242" fill="none" rx="3" ry="3" style="stroke:#038048;stroke-width:1"/><text x="495" y="263.589" fill="#000" font-family="sans-serif" font-size="14" lengthAdjust="spacing" textLength="180">PrivateProfile privateProfile</text><ellipse cx="486" cy="276.539" fill="none" rx="3" ry="3" style="stroke:#038048;stroke-width:1"/><text x="495" y="279.886" fill="#000" font-family="sans-serif" font-size="14" lengthAdjust="spacing" textLength="256">List&lt;PublicProfile&gt; registeredFriends</text><ellipse cx="486" cy="292.836" fill="none" rx="3" ry="3" style="stroke:#038048;stroke-width:1"/><text x="495" y="296.183" fill="#000" font-family="sans-serif" font-size="14" lengthAdjust="spacing" textLength="342">Map&lt;String, PublicProfile&gt; nonRegisteredFriends</text><line style="stroke:#181818;stroke-width:.5" x1="476" x2="842" y1="303.484" y2="303.484"/></g><g id="link_project_bs::net_models::user::public_profile_dto.dart::PublicProfileDTO_project_bs::net_models::user::public_profile_dto.dart::_PublicProfileDTO"><path id="project_bs::net_models::user::public_profile_dto.dart::PublicProfileDTO-backto-project_bs::net_models::user::public_profile_dto.dart::_PublicProfileDTO" fill="none" d="M263,637.12 C263,658.3 263,685.19 263,707.98" codeLine="10" style="stroke:#181818;stroke-width:1"/><polygon fill="#181818" points="263 631.87 259 640.87 263 636.87 267 640.87 263 631.87" style="stroke:#181818;stroke-width:1"/></g><g id="link_project_bs::net_models::user::user_data_dto.dart::_UserDataDTO_project_bs::net_models::user::public_profile_dto.dart::PublicProfileDTO"><path id="project_bs::net_models::user::user_data_dto.dart::_UserDataDTO-backto-project_bs::net_models::user::public_profile_dto.dart::PublicProfileDTO" fill="none" d="M253.75,504.23 C255.9,526.19 258.18,549.42 259.94,567.32" codeLine="22" style="stroke:#181818;stroke-width:1"/><polygon fill="#181818" points="252.46 491.14 249.066 497.502 253.633 503.082 257.027 496.72 252.46 491.14" style="stroke:#181818;stroke-width:1"/></g><g id="link_project_bs::net_models::user::user_data_dto.dart::UserDataDTO_project_bs::net_models::user::user_data_dto.dart::_UserDataDTO"><path id="project_bs::net_models::user::user_data_dto.dart::UserDataDTO-backto-project_bs::net_models::user::user_data_dto.dart::_UserDataDTO" fill="none" d="M275.97,283.84 C270.79,310.56 263.67,347.37 257.78,377.8" codeLine="23" style="stroke:#181818;stroke-width:1"/><polygon fill="#181818" points="276.97 278.63 271.341 286.712 276.025 283.54 279.197 288.224 276.97 278.63" style="stroke:#181818;stroke-width:1"/></g><g id="link_project_bs::runtime_models::user::private_profile.dart::PrivateProfile_project_bs::runtime_models::user::private_profile.dart::_PrivateProfile"><path id="project_bs::runtime_models::user::private_profile.dart::PrivateProfile-backto-project_bs::runtime_models::user::private_profile.dart::_PrivateProfile" fill="none" d="M986.38,463.71 C987.8,492.57 990,537.31 991.47,567.24" codeLine="31" style="stroke:#181818;stroke-width:1"/><polygon fill="#181818" points="986.13 458.51 982.573 467.694 986.373 463.504 990.563 467.305 986.13 458.51" style="stroke:#181818;stroke-width:1"/></g><g id="link_project_bs::runtime_models::user::public_profile.dart::PublicProfile_project_bs::net_models::user::public_profile_dto.dart::PublicProfileDTO"><path id="project_bs::runtime_models::user::public_profile.dart::PublicProfile-backto-project_bs::net_models::user::public_profile_dto.dart::PublicProfileDTO" fill="none" d="M513.56,488.42 C454.08,514.55 384.4,545.16 333.63,567.47" codeLine="38" style="stroke:#181818;stroke-width:1"/><polygon fill="none" points="525.69 483.08 518.588 481.832 514.704 487.907 521.806 489.156 525.69 483.08" style="stroke:#181818;stroke-width:1"/></g><g id="link_project_bs::runtime_models::user::public_profile.dart::_PublicProfile_project_bs::runtime_models::user::public_profile.dart::PublicProfile"><path id="project_bs::runtime_models::user::public_profile.dart::_PublicProfile-backto-project_bs::runtime_models::user::public_profile.dart::PublicProfile" fill="none" d="M647.1,537.71 C647.81,519.67 647.57,500.17 646.4,483.08" codeLine="45" style="stroke:#181818;stroke-width:1"/><polygon fill="#181818" points="646.41 550.86 650.727 545.084 647.056 538.877 642.739 544.653 646.41 550.86" style="stroke:#181818;stroke-width:1"/></g><g id="link_project_bs::runtime_models::user::public_profile.dart::PublicProfile_project_bs::runtime_models::user::public_profile.dart::_PublicProfile"><path id="project_bs::runtime_models::user::public_profile.dart::PublicProfile-backto-project_bs::runtime_models::user::public_profile.dart::_PublicProfile" fill="none" d="M621.99,488.15 C620.91,508.31 621.01,531.19 622.28,550.86" codeLine="46" style="stroke:#181818;stroke-width:1"/><polygon fill="#181818" points="622.29 483.08 617.757 491.824 621.99 488.071 625.742 492.304 622.29 483.08" style="stroke:#181818;stroke-width:1"/></g><g id="link_project_bs::runtime_models::user::user_data.dart::UserData_project_bs::net_models::user::user_data_dto.dart::UserDataDTO"><path id="project_bs::runtime_models::user::user_data.dart::UserData-backto-project_bs::net_models::user::user_data_dto.dart::UserDataDTO" fill="none" d="M533.65,127.76 C474.95,155.34 401.45,189.86 349.26,214.38" codeLine="52" style="stroke:#181818;stroke-width:1"/><polygon fill="none" points="545.56 122.17 538.429 121.1 534.698 127.271 541.83 128.341 545.56 122.17" style="stroke:#181818;stroke-width:1"/></g><g id="link_project_bs::runtime_models::user::user_data.dart::_UserData_project_bs::runtime_models::user::public_profile.dart::PublicProfile"><path id="project_bs::runtime_models::user::user_data.dart::_UserData-backto-project_bs::runtime_models::user::public_profile.dart::PublicProfile" fill="none" d="M648.66,324.41 C645.86,345.28 642.9,367.27 640.39,385.99" codeLine="61" style="stroke:#181818;stroke-width:1"/><polygon fill="#181818" points="650.43 311.25 645.668 316.665 648.835 323.144 653.597 317.729 650.43 311.25" style="stroke:#181818;stroke-width:1"/></g><g id="link_project_bs::runtime_models::user::user_data.dart::_UserData_project_bs::runtime_models::user::private_profile.dart::PrivateProfile"><path id="project_bs::runtime_models::user::user_data.dart::_UserData-backto-project_bs::runtime_models::user::private_profile.dart::PrivateProfile" fill="none" d="M782.11,317.74 C839.52,350.5 903.96,387.26 944.5,410.39" codeLine="62" style="stroke:#181818;stroke-width:1"/><polygon fill="#181818" points="770.73 311.25 773.957 317.699 781.151 317.199 777.924 310.751 770.73 311.25" style="stroke:#181818;stroke-width:1"/></g><g id="link_project_bs::runtime_models::user::user_data.dart::UserData_project_bs::runtime_models::user::user_data.dart::_UserData"><path id="project_bs::runtime_models::user::user_data.dart::UserData-backto-project_bs::runtime_models::user::user_data.dart::_UserData" fill="none" d="M638.01,127.5 C641,144.31 644.45,163.73 647.69,181.91" codeLine="63" style="stroke:#181818;stroke-width:1"/><polygon fill="#181818" points="637.09 122.37 634.723 131.93 637.963 127.293 642.6 130.533 637.09 122.37" style="stroke:#181818;stroke-width:1"/></g></g></svg>